<?xml version="1.0" encoding="UTF-8"?>
<svg width="375px" height="319px" viewBox="0 0 375 319" version="1.1" xmlns="http://www.w3.org/2000/svg" xmlns:xlink="http://www.w3.org/1999/xlink">
    <title>tu</title>
    <g id="❎生成器" stroke="none" stroke-width="1" fill="none" fill-rule="evenodd">
        <g id="tu">
            <rect id="矩形" fill="#FFFFFF" x="0" y="0" width="375" height="319"></rect>
            <g id="综合APP/分割线/375" transform="translate(0.000000, 318.000000)" fill="#F4F4F4">
                <rect x="0" y="0" width="375" height="1"></rect>
            </g>
            <g id="图片" transform="translate(113.000000, 112.000000)">
                <g id="编组" transform="translate(0.000000, 51.000000)">
                    <path d="M112.1141,79.3056 C112.1141,77.5366 112.7041,75.7466 113.8841,73.9366 C115.0631,72.1266 116.4061,70.9506 117.9121,70.4106" id="Stroke-1" stroke="#000000"></path>
                    <path d="M117.9118,70.4102 C120.5668,69.4572 121.8938,70.5402 121.8938,73.6592" id="Stroke-3" stroke="#000000"></path>
                    <path d="M121.8936,73.6594 C121.8936,75.4284 121.3036,77.2184 120.1236,79.0284 C118.9446,80.8384 117.6016,82.0144 116.0956,82.5544" id="Stroke-5" stroke="#000000"></path>
                    <path d="M116.0953,82.5549 C113.4413,83.5079 112.1143,82.4249 112.1143,79.3059" id="Stroke-7" stroke="#000000"></path>
                    <line x1="124.2789" y1="80.7898" x2="110.2479" y2="88.8908" id="Stroke-9" stroke="#000000"></line>
                    <path d="M124.2789,80.7898 C124.6539,80.5428 124.8909,80.1338 124.9169,79.6848" id="Stroke-11" stroke="#000000"></path>
                    <line x1="124.9166" y1="66.2646" x2="124.9166" y2="79.6846" id="Stroke-13" stroke="#000000"></line>
                    <line x1="109.6095" y1="75.1018" x2="109.6095" y2="88.5228" id="Stroke-15" stroke="#000000"></line>
                    <path d="M109.6095,88.5225 C109.5685,88.7335 109.7075,88.9385 109.9185,88.9785 C110.0355,89.0015 110.1575,88.9695 110.2475,88.8905" id="Stroke-17" stroke="#000000"></path>
                    <line x1="109.5634" y1="73.537" x2="109.6054" y2="75.102" id="Stroke-19" stroke="#000000"></line>
                    <line x1="109.6062" y1="75.1156" x2="92.1532" y2="85.1926" id="Stroke-21" stroke="#000000"></line>
                    <path d="M92.1494,85.1942 C87.4134,87.9282 81.6964,89.2952 74.9994,89.2952 C68.3034,89.2952 62.5874,87.9282 57.8514,85.1952" id="Stroke-23" stroke="#000000"></path>
                    <line x1="57.8468" y1="85.1923" x2="7.6118" y2="56.1883" id="Stroke-25" stroke="#000000"></line>
                    <path d="M7.6059,56.1856 C2.8689,53.4506 0.4999,50.1496 0.4999,46.2826 C0.4999,46.1706 0.5019,46.0586 0.5069,45.9466" id="Stroke-27" stroke="#000000"></path>
                    <line x1="149.4709" y1="45.6093" x2="149.4909" y2="45.9203" id="Stroke-29" stroke="#000000"></line>
                    <path d="M149.4928,45.967 C149.6488,49.957 147.2818,53.364 142.3938,56.186" id="Stroke-31" stroke="#000000"></path>
                    <line x1="142.3878" y1="56.1894" x2="124.9248" y2="66.2714" id="Stroke-33" stroke="#000000"></line>
                    <line x1="124.8706" y1="64.6997" x2="124.9136" y2="66.2777" id="Stroke-35" stroke="#000000"></line>
                    <path d="M110.181,72.4205 C109.804,72.6685 109.573,73.0855 109.563,73.5365" id="Stroke-37" stroke="#000000"></path>
                    <path d="M124.8706,64.6994 C124.9076,64.4784 124.7596,64.2694 124.5386,64.2324 C124.4226,64.2124 124.3036,64.2444 124.2126,64.3194" id="Stroke-39" stroke="#000000"></path>
                    <line x1="124.2122" y1="64.3195" x2="110.1812" y2="72.4205" id="Stroke-41" stroke="#000000"></line>
                    <path d="M8.3355,32.9876 C6.3635,34.0566 4.6475,35.5416 3.3075,37.3406 C2.7485,38.1126 2.3005,38.9606 1.9775,39.8576 C1.3595,41.5466 1.3595,43.4006 1.9775,45.0896 C2.3005,45.9836 2.7465,46.8266 3.3035,47.5966 C4.6405,49.3996 6.3565,50.8876 8.3305,51.9566" id="Stroke-43" stroke="#000000"></path>
                    <path d="M0.6048,43.5937 C0.6058,41.7617 1.2318,39.9427 2.4478,38.2527 C2.4708,38.2207 2.4938,38.1887 2.5168,38.1567 C2.8188,37.7477 3.1438,37.3567 3.4918,36.9857" id="Stroke-45" stroke="#000000"></path>
                    <path d="M91.4292,3.9846 C89.3002,2.7306 86.6952,1.7486 83.8862,1.0806 C82.4502,0.7396 80.9972,0.4846 79.5312,0.3136 C78.0272,0.1376 76.5142,0.0496 75.0002,0.0496 C73.4852,0.0496 71.9732,0.1376 70.4682,0.3136 C69.0052,0.4846 67.5542,0.7396 66.1132,1.0806 C63.3082,1.7476 60.7062,2.7286 58.5752,3.9816" id="Stroke-47" stroke="#000000"></path>
                    <path d="M146.5201,37 C146.8631,37.367 147.1841,37.753 147.4821,38.158 C147.5071,38.192 147.5321,38.227 147.5571,38.261 C148.7701,39.952 149.3951,41.771 149.394101,43.603" id="Stroke-49" stroke="#000000"></path>
                    <path d="M141.6659,51.9586 C144.5249,50.4846 146.7749,48.0536 148.0239,45.0906 C148.6399,43.4006 148.6399,41.5476 148.0239,39.8576 C146.7759,36.8946 144.5269,34.4636 141.6689,32.9906" id="Stroke-51" stroke="#000000"></path>
                    <path d="M58.5725,80.964 C60.7005,82.224 63.3055,83.196 66.1135,83.863 C67.5495,84.203 69.0025,84.46 70.4685,84.633 C71.9725,84.812 73.4845,84.902 74.9995,84.903 C76.5145,84.902 78.0265,84.812 79.5315,84.633 C80.9975,84.46 82.4505,84.203 83.8865,83.863 C86.6935,83.196 89.2965,82.224 91.4255,80.965" id="Stroke-53" stroke="#000000"></path>
                    <line x1="58.5725" y1="80.964" x2="8.3305" y2="51.957" id="Stroke-55" stroke="#000000"></line>
                    <line x1="8.3355" y1="32.9876" x2="58.5755" y2="3.9816" id="Stroke-57" stroke="#000000"></line>
                    <line x1="91.4292" y1="3.9846" x2="141.6692" y2="32.9906" id="Stroke-59" stroke="#000000"></line>
                    <line x1="141.6659" y1="51.9586" x2="91.4259" y2="80.9646" id="Stroke-61" stroke="#000000"></line>
                    <line x1="149.4262" y1="47.3691" x2="148.0422" y2="65.8371" id="Stroke-63" stroke="#000000"></line>
                    <line x1="1.9576" y1="65.8371" x2="0.5426" y2="46.9551" id="Stroke-65" stroke="#000000"></line>
                    <line x1="0.5063" y1="45.9671" x2="0.5983" y2="43.5991" id="Stroke-67" stroke="#000000"></line>
                    <line x1="149.4006" y1="43.6027" x2="149.4906" y2="45.9207" id="Stroke-69" stroke="#000000"></line>
                    <line x1="3.492" y1="36.9862" x2="4.278" y2="36.1452" id="Stroke-71" stroke="#000000"></line>
                    <line x1="145.7271" y1="36.1507" x2="146.5191" y2="37.0007" id="Stroke-73" stroke="#000000"></line>
                    <path d="M126.8247,65.1626 C126.5047,69.3846 126.2067,73.6086 125.9307,77.8346" id="Stroke-75" stroke="#000000"></path>
                    <line x1="141.378" y1="74.5846" x2="91.135" y2="103.5926" id="Stroke-77" stroke="#000000"></line>
                    <path d="M107.1571,90.1499 C107.3751,85.5029 107.5561,80.8539 107.7011,76.2039" id="Stroke-79" stroke="#000000"></path>
                    <path d="M107.1571,90.1499 C107.1251,90.4949 107.1411,90.8429 107.2051,91.1829" id="Stroke-81" stroke="#000000"></path>
                    <path d="M107.205,91.1827 C107.227,91.2857 107.263,91.3807 107.308,91.4747 C107.347,91.5577 107.394,91.6397 107.456,91.7067 C107.566,91.8267 107.723,91.9017 107.883,91.9207 C108.052,91.9417 108.224,91.8987 108.384,91.8367 C108.675,91.7237 108.929,91.5437 109.202,91.3927" id="Stroke-83" stroke="#000000"></path>
                    <line x1="109.2018" y1="91.3927" x2="110.6308" y2="90.5767" id="Stroke-85" stroke="#000000"></line>
                    <line x1="110.6311" y1="90.577" x2="123.5111" y2="83.123" id="Stroke-87" stroke="#000000"></line>
                    <path d="M123.5112,83.1228 C124.1722,82.8398 124.7322,82.3658 125.1192,81.7608" id="Stroke-89" stroke="#000000"></path>
                    <path d="M125.1196,81.7605 C125.5696,81.0445 125.8156,80.2185 125.8306,79.3725" id="Stroke-91" stroke="#000000"></path>
                    <path d="M125.9311,77.8344 C125.8961,78.3464 125.8631,78.8594 125.8301,79.3724" id="Stroke-93" stroke="#000000"></path>
                    <path d="M141.378,74.5846 C143.491,73.3656 145.182,71.9036 146.326,70.3106 C147.343,68.8916 147.926,67.3706 148.042,65.8376" id="Stroke-95" stroke="#000000"></path>
                    <path d="M1.9576,65.8371 C2.0736,67.3701 2.6556,68.8911 3.6726,70.3091 C4.8166,71.9021 6.5076,73.3641 8.6196,74.5841" id="Stroke-97" stroke="#000000"></path>
                    <line x1="58.8642" y1="103.5924" x2="8.6192" y2="74.5834" id="Stroke-99" stroke="#000000"></line>
                    <path d="M91.1352,103.5923 C86.6792,106.1653 81.3012,107.4513 75.0002,107.4513 C68.6982,107.4513 63.3202,106.1653 58.8642,103.5923" id="Stroke-101" stroke="#000000"></path>
                    <line x1="12.9311" y1="48.6118" x2="63.1711" y2="77.6178" id="Stroke-103" stroke="#000000"></line>
                    <path d="M101.2367,26.6109 C100.2317,26.0349 99.1697,25.5629 98.0797,25.1719 C96.8977,24.7489 95.6817,24.4209 94.4537,24.1659 C91.6527,23.5829 88.7827,23.3739 85.9207,23.4059 C82.6527,23.4429 79.3947,23.7949 76.1847,24.3969 C72.9467,25.0039 69.7567,25.8639 66.6507,26.9619 C63.6127,28.0369 60.6567,29.3379 57.8347,30.8939 C55.1507,32.3739 52.5897,34.0839 50.2777,36.0949 C49.2817,36.9609 48.3317,37.8829 47.4577,38.8729 C46.6417,39.7969 45.8917,40.7799 45.2427,41.8279 C44.7037,42.6999 44.2347,43.6179 43.8747,44.5779 C43.5327,45.4919 43.2887,46.4439 43.1897,47.4139 C43.1057,48.2459 43.1267,49.0909 43.2707,49.9159 C43.3977,50.6449 43.6217,51.3569 43.9317,52.0289 C44.2657,52.7519 44.7007,53.4279 45.2087,54.0429 C45.7737,54.7289 46.4297,55.3379 47.1347,55.8779 C48.7197,57.0909 50.5547,57.9479 52.4527,58.5779 C54.7177,59.3299 57.0717,59.7569 59.4437,59.9789 C62.2147,60.2379 65.0097,60.2149 67.7847,59.9869 C70.7957,59.7399 73.7837,59.2489 76.7237,58.5529 C79.6817,57.8529 82.5907,56.9449 85.4187,55.8309 C88.0307,54.8029 90.5737,53.6009 93.0057,52.1989 C94.7137,51.2149 96.3667,50.1319 97.9317,48.9339 C99.2507,47.9239 100.5067,46.8329 101.6637,45.6409 C102.7297,44.5419 103.7107,43.3589 104.5437,42.0749 C105.2757,40.9469 105.8927,39.7409 106.3087,38.4619 C106.6827,37.3139 106.8937,36.1069 106.8557,34.9019 C106.8217,33.8069 106.5827,32.7139 106.1457,31.7109 C105.6897,30.6619 105.0167,29.7099 104.2197,28.8869 C103.3467,27.9849 102.3237,27.2369 101.2367,26.6109 Z" id="Stroke-105" stroke="#057CFF" stroke-width="2"></path>
                    <path d="M137.0685,34.9535 C138.6725,35.8265 139.8895,36.9035 140.7055,38.0775 C141.1135,38.6645 141.4215,39.2755 141.6275,39.8975 C141.8335,40.5195 141.9375,41.1505 141.9375,41.7825 C141.9375,42.4145 141.8335,43.0465 141.6275,43.6675 C141.4215,44.2895 141.1135,44.9005 140.7055,45.4885 C139.8895,46.6625 138.6725,47.7395 137.0685,48.6115" id="Stroke-107" stroke="#000000"></path>
                    <line x1="137.0685" y1="34.9535" x2="86.8285" y2="5.9475" id="Stroke-109" stroke="#000000"></line>
                    <path d="M63.1714,5.9471 C64.6834,5.0211 66.5484,4.3181 68.5824,3.8471 C69.5984,3.6121 70.6584,3.4341 71.7344,3.3151 C72.8114,3.1961 73.9054,3.1361 74.9994,3.1361 C76.0944,3.1361 77.1884,3.1961 78.2654,3.3151 C79.3414,3.4341 80.4004,3.6121 81.4174,3.8471 C83.4514,4.3181 85.3164,5.0211 86.8284,5.9471" id="Stroke-111" stroke="#000000"></path>
                    <line x1="63.1712" y1="5.9472" x2="12.9312" y2="34.9532" id="Stroke-113" stroke="#000000"></line>
                    <path d="M12.9311,48.6118 C11.3271,47.7388 10.1101,46.6618 9.2941,45.4878 C8.8861,44.9008 8.5781,44.2898 8.3721,43.6678 C8.1661,43.0458 8.0621,42.4148 8.0621,41.7828 C8.0621,41.1508 8.1661,40.5188 8.3721,39.8978 C8.5781,39.2758 8.8861,38.6638 9.2941,38.0768 C10.1101,36.9028 11.3271,35.8258 12.9311,34.9538" id="Stroke-115" stroke="#000000"></path>
                    <path d="M63.1714,77.6179 C64.6834,78.5439 66.5484,79.2469 68.5824,79.7179 C69.5984,79.9539 70.6584,80.1309 71.7344,80.2499 C72.8114,80.3689 73.9054,80.4289 74.9994,80.4289 C76.0944,80.4289 77.1884,80.3689 78.2654,80.2499 C79.3414,80.1309 80.4004,79.9539 81.4174,79.7179 C83.4514,79.2469 85.3164,78.5439 86.8284,77.6179" id="Stroke-117" stroke="#000000"></path>
                    <line x1="86.8283" y1="77.618" x2="137.0683" y2="48.612" id="Stroke-119" stroke="#000000"></line>
                    <path d="M50.3714,23.197 C50.8954,23.502 51.3934,23.908 51.6934,24.443 C51.8184,24.666 51.9094,24.911 51.9434,25.166 C51.9764,25.411 51.9564,25.665 51.8914,25.903 C51.7444,26.443 51.3644,26.897 50.9224,27.252 C50.3574,27.705 49.6904,27.997 48.9984,28.198 C48.1994,28.43 47.3684,28.5420073 46.5374,28.5420073 C45.7394,28.543 44.9414,28.441 44.1714,28.227 C43.4704,28.032 42.7944,27.743 42.2144,27.299 C41.7604,26.951 41.3664,26.508 41.2024,25.965 C41.1064,25.65 41.0884,25.301 41.1624,24.979 C41.2424,24.633 41.4294,24.318 41.6604,24.045 C41.9514,23.699 42.3124,23.422 42.7024,23.196 C43.1324,22.948 43.5984,22.763 44.0764,22.622 C45.1464,22.308 46.2734,22.218 47.3854,22.319 C48.4284,22.415 49.4564,22.678 50.3714,23.197 Z" id="Stroke-121" stroke="#000000"></path>
                    <path d="M68.9267,8.9056 C69.2137,9.0726 69.4867,9.2956 69.6507,9.5876 C69.7197,9.7096 69.7687,9.8446 69.7877,9.9836 C69.8057,10.1186 69.7947,10.2576 69.7597,10.3876 C69.6787,10.6836 69.4707,10.9316 69.2287,11.1266 C68.9187,11.3746 68.5537,11.5346 68.1747,11.6446 C67.7377,11.7716 67.2817,11.8326 66.8267,11.8336 C66.3897,11.8336 65.9527,11.7776 65.5307,11.6606 C65.1477,11.5536 64.7767,11.3956 64.4597,11.1526 C64.2107,10.9616 63.9947,10.7186 63.9047,10.4216 C63.8527,10.2496 63.8427,10.0576 63.8827,9.8816 C63.9267,9.6916 64.0297,9.5196 64.1557,9.3696 C64.3147,9.1806 64.5127,9.0286 64.7267,8.9056 C64.9617,8.7696 65.2177,8.6676 65.4787,8.5906 C66.0647,8.4186 66.6827,8.3696 67.2917,8.4246 C67.8627,8.4776 68.4257,8.6216 68.9267,8.9056 Z" id="Stroke-123" stroke="#000000"></path>
                    <path d="M106.8558,34.9015 C106.8218,33.8075 106.5828,32.7145 106.1458,31.7105 C105.6888,30.6615 105.0168,29.7105 104.2198,28.8875 C103.3468,27.9845 102.3238,27.2365 101.2368,26.6115 C100.2318,26.0345 99.1698,25.5625 98.0798,25.1725 C96.8978,24.7495 95.6818,24.4215 94.4528,24.1655 C91.6528,23.5825 88.7828,23.3735 85.9198,23.4065 C82.6518,23.4435 79.3948,23.7955 76.1838,24.3975 C72.9468,25.0035 69.7568,25.8645 66.6508,26.9625 C63.6128,28.0365 60.6558,29.3385 57.8348,30.8935 C55.1508,32.3735 52.5898,34.0835 50.2778,36.0945 C49.2808,36.9605 48.3308,37.8835 47.4568,38.8735 C46.6408,39.7975 45.8908,40.7795 45.2428,41.8285 C44.7038,42.7005 44.2348,43.6175 43.8748,44.5785 C43.5328,45.4915 43.2888,46.4445 43.1898,47.4145 C43.1048,48.2465 43.1268,49.0915 43.2708,49.9155 C43.3978,50.6445 43.6218,51.3575 43.9318,52.0285 C44.2658,52.7525 44.7008,53.4285 45.2088,54.0435 C45.7738,54.7285 46.4298,55.3385 47.1348,55.8775 C48.7198,57.0905 50.5548,57.9485 52.4528,58.5785 C53.4038,58.8935 54.3708,59.1495 55.3478,59.3595 C58.1928,57.4765 62.1758,55.2945 64.9518,54.0875 C68.3208,52.6235 71.8258,51.4805 75.4098,50.6685 C78.9168,49.8745 82.4998,49.3975 86.0948,49.3755 C87.6388,49.3655 89.1858,49.4405 90.7188,49.6275 C91.7188,49.7505 93.8868,50.2175 95.5588,50.6215 C96.3688,50.0855 97.1608,49.5245 97.9318,48.9335 C99.2508,47.9245 100.5068,46.8325 101.6638,45.6405 C102.7298,44.5425 103.7098,43.3585 104.5428,42.0745 C105.2748,40.9465 105.8928,39.7405 106.3088,38.4615 C106.6828,37.3135 106.8938,36.1065 106.8558,34.9015 Z" id="Stroke-125" stroke="#057CFF" stroke-width="2"></path>
                    <path d="M106.8558,34.9015 C106.8218,33.8075 106.5828,32.7145 106.1458,31.7105 C105.6888,30.6615 105.0168,29.7105 104.2198,28.8875 C103.3468,27.9845 102.3238,27.2365 101.2368,26.6115 C100.2318,26.0345 99.1698,25.5625 98.0798,25.1725 C96.8978,24.7495 95.6818,24.4215 94.4528,24.1655 C91.6528,23.5825 88.7828,23.3735 85.9198,23.4065 C82.6518,23.4435 79.3948,23.7955 76.1838,24.3975 C72.9468,25.0035 69.7568,25.8645 66.6508,26.9625 C63.6128,28.0365 60.6558,29.3385 57.8348,30.8935 C55.1508,32.3735 52.5898,34.0835 50.2778,36.0945 C49.2808,36.9605 48.3308,37.8835 47.4568,38.8735 C46.6408,39.7975 45.8908,40.7795 45.2428,41.8285 C44.7038,42.7005 44.2348,43.6175 43.8748,44.5785 C43.5328,45.4915 43.2888,46.4445 43.1898,47.4145 C43.1048,48.2465 43.1268,49.0915 43.2708,49.9155 C43.3978,50.6445 43.6218,51.3575 43.9318,52.0285 C44.2658,52.7525 44.7008,53.4285 45.2088,54.0435 C45.7738,54.7285 46.4298,55.3385 47.1348,55.8775 C48.7198,57.0905 50.5548,57.9485 52.4528,58.5785 C53.4038,58.8935 54.3708,59.1495 55.3478,59.3595 C58.1928,57.4765 62.1758,55.2945 64.9518,54.0875 C68.3208,52.6235 71.8258,51.4805 75.4098,50.6685 C78.9168,49.8745 82.4998,49.3975 86.0948,49.3755 C87.6388,49.3655 89.1858,49.4405 90.7188,49.6275 C91.7188,49.7505 93.8868,50.2175 95.5588,50.6215 C96.3688,50.0855 97.1608,49.5245 97.9318,48.9335 C99.2508,47.9245 100.5068,46.8325 101.6638,45.6405 C102.7298,44.5425 103.7098,43.3585 104.5428,42.0745 C105.2748,40.9465 105.8928,39.7405 106.3088,38.4615 C106.6828,37.3135 106.8938,36.1065 106.8558,34.9015" id="Fill-127" fill-opacity="0.1" fill="#057CFF"></path>
                </g>
                <g id="编组" transform="translate(47.000000, 0.000000)">
                    <path d="M26.6086,0.4999 C31.8026,0.4999 40.2416,1.7239 42.3346,2.4119 C44.4276,3.1019 46.1876,3.6369 47.1056,6.8509 C48.0236,10.0639 52.2516,31.6599 52.8816,41.5879 C53.5136,51.5159 53.6856,74.9289 53.2836,81.1849 L52.5956,81.1849 C52.5956,81.1849 52.6526,87.2679 52.5376,88.4729 C52.4226,89.6779 50.8166,91.2269 48.3486,92.8909 C45.8806,94.5549 33.1416,100.3519 20.0006,100.3519 C6.8586,100.3519 1.3496,97.1379 1.1776,93.7519 C1.0056,90.3659 0.9476,88.6449 0.8336,84.8569 C0.7186,81.0689 0.1446,67.1819 0.8336,55.1879 C1.5216,43.1939 5.1376,17.2569 5.9406,12.3789 C6.7436,7.5009 6.9546,3.8279 11.0956,2.6229 C15.2366,1.4179 20.3626,0.4999 26.6086,0.4999" id="Fill-1" fill="#FFFFFF"></path>
                    <path d="M26.6086,0.4999 C31.8026,0.4999 40.2416,1.7239 42.3346,2.4119 C44.4276,3.1019 46.1876,3.6369 47.1056,6.8509 C48.0236,10.0639 52.2516,31.6599 52.8816,41.5879 C53.5136,51.5159 53.6856,74.9289 53.2836,81.1849 L52.5956,81.1849 C52.5956,81.1849 52.6526,87.2679 52.5376,88.4729 C52.4226,89.6779 50.8166,91.2269 48.3486,92.8909 C45.8806,94.5549 33.1416,100.3519 20.0006,100.3519 C6.8586,100.3519 1.3496,97.1379 1.1776,93.7519 C1.0056,90.3659 0.9476,88.6449 0.8336,84.8569 C0.7186,81.0689 0.1446,67.1819 0.8336,55.1879 C1.5216,43.1939 5.1376,17.2569 5.9406,12.3789 C6.7436,7.5009 6.9546,3.8279 11.0956,2.6229 C15.2366,1.4179 20.3626,0.4999 26.6086,0.4999 Z" id="Stroke-3" stroke="#323333" stroke-linecap="round" stroke-linejoin="round"></path>
                    <path d="M16.7292,7.1561 C19.3552,6.8861 32.3382,8.4191 36.1252,9.7961 C39.9132,11.1741 41.2902,12.0921 41.7492,14.2721 C42.2082,16.4531 46.7992,37.5711 47.3732,51.5731 C47.9472,65.5751 48.2912,78.3151 48.2912,78.3151 L42.4382,77.3961 C42.4382,77.3961 43.8152,56.0491 41.9792,42.7351 C40.1432,29.4221 39.3392,21.0441 38.5362,18.0591 C37.7322,15.0761 36.3552,15.1901 34.2892,14.8451 C33.2792,14.6771 30.1652,14.2091 27.0002,14.1731 C23.6922,14.1351 20.3292,14.5361 19.2542,14.7311 C17.1502,15.1141 15.4662,15.1141 14.8932,17.6001 C14.3192,20.0871 12.2142,31.4111 11.5262,41.7411 C10.8372,52.0701 10.5312,73.6471 11.5262,83.0581 L5.4812,84.4361 C5.4812,84.4361 6.0172,63.7771 6.3992,55.9721 C6.7822,48.1681 10.3022,18.5561 11.7552,13.4301 C13.2092,8.3031 13.7452,7.4631 16.7292,7.1561 Z" id="Stroke-5" stroke="#323333" stroke-linecap="round" stroke-linejoin="round"></path>
                    <path d="M52.5954,81.1844 L42.6674,79.8064 L42.6674,87.8404 C42.6674,89.7914 39.3394,91.8584 37.3874,92.5464 C35.4364,93.2354 29.3544,94.8414 25.7964,95.0714 C22.2384,95.3004 16.2704,95.7604 14.4334,95.0714 C12.5974,94.3824 11.6324,92.7934 11.4494,86.3484 L0.9464,88.4164" id="Stroke-7" stroke="#323333" stroke-linecap="round" stroke-linejoin="round"></path>
                    <path d="M23.8605,95.1981 C23.8605,95.1981 23.2715,90.9391 23.0415,89.2191 C22.8125,87.4971 20.1725,87.0561 17.0735,87.6211 C13.9745,88.1851 11.5795,88.8541 11.5795,88.8541" id="Stroke-9" stroke="#323333" stroke-linecap="round" stroke-linejoin="round"></path>
                    <line x1="42.4381" y1="77.3963" x2="11.5261" y2="83.0583" id="Stroke-11" stroke="#323333" stroke-linecap="round" stroke-linejoin="round"></line>
                    <line x1="42.6676" y1="79.8065" x2="11.4496" y2="86.3485" id="Stroke-13" stroke="#323333" stroke-linecap="round" stroke-linejoin="round"></line>
                </g>
            </g>
        </g>
    </g>
</svg>