<?xml version="1.0" encoding="UTF-8"?>
<svg width="24px" height="24px" viewBox="0 0 24 24" version="1.1" xmlns="http://www.w3.org/2000/svg" xmlns:xlink="http://www.w3.org/1999/xlink">
    <title>åˆ‡ç‰‡</title>
    <defs>
        <filter id="filter-1">
            <feColorMatrix in="SourceGraphic" type="matrix" values="0 0 0 0 0.164289 0 0 0 0 0.164289 0 0 0 0 0.164289 0 0 0 1.000000 0"></feColorMatrix>
        </filter>
        <filter id="filter-2">
            <feColorMatrix in="SourceGraphic" type="matrix" values="0 0 0 0 0.615489 0 0 0 0 0.615489 0 0 0 0 0.615489 0 0 0 1.000000 0"></feColorMatrix>
        </filter>
        <polygon id="path-3" points="0 0 16 0 16 16 0 16"></polygon>
    </defs>
    <g id="âŽç”Ÿæˆå™¨" stroke="none" stroke-width="1" fill="none" fill-rule="evenodd">
        <g id="ðŸ¥¶ç‰¹æ®ŠåŠŸèƒ½-æ™ºèƒ½æ„Ÿåº”ä¿¡å·å¼ºåº¦è°ƒæ•´" transform="translate(-264.000000, -516.000000)">
            <g id="ç»¼åˆAPP/icon/æ·»åŠ " transform="translate(88.000000, 498.000000)" filter="url(#filter-1)">
                <g transform="translate(176.000000, 18.000000)" filter="url(#filter-2)" id="æ·»åŠ ">
                    <g transform="translate(4.000000, 4.000000)">
                        <mask id="mask-4" fill="white">
                            <use xlink:href="#path-3"></use>
                        </mask>
                        <g id="Clip-2"></g>
                        <path d="M11.1804444,8.92177778 L8.92177778,8.92177778 L8.92177778,11.1804444 C8.92177778,11.6897778 8.50844444,12.1022222 8,12.1022222 C7.49066667,12.1022222 7.07822222,11.6897778 7.07822222,11.1804444 L7.07822222,8.92177778 L4.81955556,8.92177778 C4.31022222,8.92177778 3.89777778,8.50844444 3.89777778,8 C3.89777778,7.49066667 4.31022222,7.07822222 4.81955556,7.07822222 L7.07822222,7.07822222 L7.07822222,4.81955556 C7.07822222,4.31022222 7.49066667,3.89777778 8,3.89777778 C8.50844444,3.89777778 8.92177778,4.31022222 8.92177778,4.81955556 L8.92177778,7.07822222 L11.1804444,7.07822222 C11.6897778,7.07822222 12.1022222,7.49066667 12.1022222,8 C12.1022222,8.50844444 11.6897778,8.92177778 11.1804444,8.92177778 M8,0 C3.5808,0 0,3.5808 0,8 C0,12.4176 3.5808,16 8,16 C12.4176,16 16,12.4176 16,8 C16,3.5808 12.4176,0 8,0" id="Fill-1" fill="#9D9D9D" mask="url(#mask-4)"></path>
                    </g>
                </g>
            </g>
        </g>
    </g>
</svg>